<svg width="97" height="41" viewBox="0 0 97 41" fill="none" xmlns="http://www.w3.org/2000/svg">
<rect width="41" height="41" rx="7" fill="#EF6010"/>
<path d="M11.968 21.0721L19.0782 28.1824C19.5254 28.6296 19.5254 29.3451 19.0782 29.7476C18.631 30.15 17.9155 30.1948 17.513 29.7476L9.59729 21.8318C9.15008 21.3846 9.15008 20.6691 9.59729 20.2666L17.8708 12.0381C18.0944 11.8145 18.3627 11.7251 18.6757 11.7251C18.9888 11.7251 19.2571 11.8145 19.4807 12.0381C19.9279 12.4853 19.9279 13.2009 19.4807 13.6033L11.968 21.0721Z" fill="white"/>
<path d="M29.6319 22.012L17.5575 22.012C16.9314 22.012 16.4395 21.52 16.4395 20.894C16.4395 20.2679 16.9314 19.776 17.5575 19.776L29.6319 19.776C30.258 19.776 30.7499 20.2679 30.7499 20.894C30.7499 21.52 30.258 22.012 29.6319 22.012Z" fill="white"/>
<rect x="55.8333" width="41" height="41" rx="7" fill="#F3F5FF"/>
<path d="M84.0151 20.6115L76.9049 13.5012C76.4577 13.054 76.4577 12.3385 76.9049 11.936C77.3521 11.5336 78.0676 11.4888 78.4701 11.936L86.3858 19.8518C86.833 20.299 86.833 21.0145 86.3858 21.417L78.1123 29.6455C77.8887 29.8691 77.6204 29.9585 77.3074 29.9585C76.9943 29.9585 76.726 29.8691 76.5024 29.6455C76.0552 29.1983 76.0552 28.4827 76.5024 28.0803L84.0151 20.6115Z" fill="#EF6010"/>
<path d="M66.3512 19.6716H78.4256C79.0517 19.6716 79.5436 20.1636 79.5436 20.7896C79.5436 21.4157 79.0517 21.9076 78.4256 21.9076H66.3512C65.7251 21.9076 65.2332 21.4157 65.2332 20.7896C65.2332 20.1636 65.7251 19.6716 66.3512 19.6716Z" fill="#EF6010"/>
</svg>
